<?xml version="1.0" encoding="UTF-8"?>
<svg id="katman_1" data-name="katman 1" xmlns="http://www.w3.org/2000/svg" xmlns:xlink="http://www.w3.org/1999/xlink" viewBox="0 0 27.84 31.12">
  <defs>
    <style>
      .cls-1, .cls-2, .cls-3, .cls-4, .cls-5, .cls-6 {
        fill: none;
      }

      .cls-7 {
        fill: #00b46c;
      }

      .cls-8 {
        fill: #695ce6;
      }

      .cls-9 {
        fill: #fff;
      }

      .cls-2 {
        stroke: url(#Adsız_degrade_5-3);
      }

      .cls-2, .cls-3 {
        stroke-width: 1.18px;
      }

      .cls-2, .cls-3, .cls-4, .cls-5 {
        stroke-miterlimit: 10;
      }

      .cls-3 {
        stroke: url(#Adsız_degrade_5-2);
      }

      .cls-4 {
        stroke: url(#Adsız_degrade_5);
      }

      .cls-4, .cls-5 {
        stroke-width: 1.05px;
      }

      .cls-5 {
        stroke: url(#Adsız_degrade_14);
      }

      .cls-6 {
        clip-path: url(#clippath);
      }
    </style>
    <linearGradient id="Adsız_degrade_14" data-name="Adsız degrade 14" x1="7.84" y1="22.29" x2="9.86" y2="22.29" gradientUnits="userSpaceOnUse">
      <stop offset=".05" stop-color="#00ae76"/>
      <stop offset="1" stop-color="#695ce6"/>
    </linearGradient>
    <linearGradient id="Adsız_degrade_5" data-name="Adsız degrade 5" x1="0" y1="26.38" x2="9.48" y2="26.38" gradientUnits="userSpaceOnUse">
      <stop offset="0" stop-color="#695ce6"/>
      <stop offset="1" stop-color="#00b46c"/>
    </linearGradient>
    <clipPath id="clippath">
      <polygon class="cls-1" points="24.67 6.75 24.67 6.31 27.11 7.45 27.84 11.77 27.84 20.32 24.67 24.99 13.4 26.38 8.95 22.93 5.3 17.67 5 13.24 7.21 7.45 9.38 6.26 9.38 9.36 11.63 10.96 21.9 10.09 24.31 11.38 24.75 11.38 24.67 6.75"/>
    </clipPath>
    <linearGradient id="Adsız_degrade_5-2" data-name="Adsız degrade 5" x1="6.24" y1="14.51" x2="27.3" y2="14.51" xlink:href="#Adsız_degrade_5"/>
    <linearGradient id="Adsız_degrade_5-3" data-name="Adsız degrade 5" x1="6.24" y1="19.78" x2="27.3" y2="19.78" xlink:href="#Adsız_degrade_5"/>
  </defs>
  <line class="cls-5" x1="9.49" y1="21.66" x2="8.21" y2="22.93"/>
  <path class="cls-4" d="m6.28,22.47L.83,27.92c-.4.4-.4,1.04,0,1.44l.94.94c.4.4,1.04.4,1.44,0l5.45-5.45c.4-.4.4-1.04,0-1.44l-.54-.54-.4-.4c-.4-.4-1.04-.4-1.44,0Z"/>
  <g class="cls-6">
    <circle class="cls-3" cx="16.77" cy="14.51" r="9.94"/>
  </g>
  <path class="cls-8" d="m18.05,0h-7.02c-.85,0-1.51.65-1.51,1.51l.36,19.37c0,.25.69,1.01.94,1.01l1.2.19c.3,0,.5-.2.5-.5v-3.01c0-.3.2-.5.5-.5h3.01c.3,0,.5.2.5.5v3.01c0,.3.2.5.5.5h1.51c.55,0,1-.45,1-1V1.51c0-.85-.65-1.51-1.51-1.51Zm-4.52,15.8c0,.15-.1.25-.25.25h-1.51c-.15,0-.25-.1-.25-.25v-2.51c0-.15.1-.25.25-.25h1.51c.15,0,.25.1.25.25v2.51Zm0-5.02c0,.15-.1.25-.25.25h-1.51c-.15,0-.25-.1-.25-.25v-2.51c0-.15.1-.25.25-.25h1.51c.15,0,.25.1.25.25v2.51Zm0-5.02c0,.15-.1.25-.25.25h-1.51c-.15,0-.25-.1-.25-.25v-2.51c0-.15.1-.25.25-.25h1.51c.15,0,.25.1.25.25v2.51Zm4.01,10.03c0,.15-.1.25-.25.25h-1.51c-.15,0-.25-.1-.25-.25v-2.51c0-.15.1-.25.25-.25h1.51c.15,0,.25.1.25.25v2.51Zm0-5.02c0,.15-.1.25-.25.25h-1.51c-.15,0-.25-.1-.25-.25v-2.51c0-.15.1-.25.25-.25h1.51c.15,0,.25.1.25.25v2.51Zm0-5.02c0,.15-.1.25-.25.25h-1.51c-.15,0-.25-.1-.25-.25v-2.51c0-.15.1-.25.25-.25h1.51c.15,0,.25.1.25.25v2.51Z"/>
  <ellipse class="cls-8" cx="16.62" cy="20.66" rx="6.57" ry="3.49"/>
  <rect class="cls-9" x="11.52" y="3.02" width="2.01" height="3" rx=".08" ry=".08"/>
  <rect class="cls-9" x="11.52" y="8.03" width="2.01" height="3" rx=".14" ry=".14"/>
  <rect class="cls-9" x="11.52" y="13.05" width="2.01" height="3" rx=".12" ry=".12"/>
  <path class="cls-7" d="m22.98,2.72h-6.61c-.78,0-1.42.63-1.42,1.42v18.89c0,.26.21.47.47.47h1.89c.26,0,.47-.21.47-.47v-2.83c0-.26.21-.47.47-.47h2.83c.26,0,.47.21.47.47v2.83c0,.26.21.47.47.47l-.47-.47c1.3,0,.66-1.28,2.83-1.89V4.14c0-.78-.63-1.42-1.42-1.42Zm-4.25,14.87c0,.13-.11.24-.24.24h-1.42c-.13,0-.24-.11-.24-.24v-2.36c0-.13.11-.24.24-.24h1.42c.13,0,.24.11.24.24v2.36Zm0-4.72c0,.13-.11.24-.24.24h-1.42c-.13,0-.24-.11-.24-.24v-2.36c0-.13.11-.24.24-.24h1.42c.13,0,.24.11.24.24v2.36Zm0-4.72c0,.13-.11.24-.24.24h-1.42c-.13,0-.24-.11-.24-.24v-2.36c0-.13.11-.24.24-.24h1.42c.13,0,.24.11.24.24v2.36Zm3.78,9.44c0,.13-.11.24-.24.24h-1.42c-.13,0-.24-.11-.24-.24v-2.36c0-.13.11-.24.24-.24h1.42c.13,0,.24.11.24.24v2.36Zm0-4.72c0,.13-.11.24-.24.24h-1.42c-.13,0-.24-.11-.24-.24v-2.36c0-.13.11-.24.24-.24h1.42c.13,0,.24.11.24.24v2.36Zm0-4.72c0,.13-.11.24-.24.24h-1.42c-.13,0-.24-.11-.24-.24v-2.36c0-.13.11-.24.24-.24h1.42c.13,0,.24.11.24.24v2.36Z"/>
  <rect class="cls-9" x="16.84" y="5.56" width="1.89" height="2.83" rx=".13" ry=".13"/>
  <rect class="cls-9" x="16.84" y="10.28" width="1.89" height="2.83" rx=".09" ry=".09"/>
  <rect class="cls-9" x="16.84" y="15" width="1.89" height="2.83" rx=".07" ry=".07"/>
  <polygon class="cls-7" points="14.96 19.58 14.96 24.14 17.27 24.55 20.44 23.86 22.93 22.43 24.4 20.68 23.73 19.25 19.14 18.92 14.96 19.58"/>
  <path class="cls-2" d="m26.71,14.51c0,5.49-4.45,9.94-9.94,9.94s-9.94-4.45-9.94-9.94"/>
  <rect class="cls-9" x="20.62" y="5.56" width="1.89" height="2.83" rx=".13" ry=".13"/>
  <rect class="cls-9" x="20.62" y="10.28" width="1.89" height="2.83" rx=".09" ry=".09"/>
  <rect class="cls-9" x="20.62" y="15" width="1.89" height="2.83" rx=".07" ry=".07"/>
</svg>