<?xml version="1.0" encoding="UTF-8"?>
<svg id="katman_1" data-name="katman 1" xmlns="http://www.w3.org/2000/svg" xmlns:xlink="http://www.w3.org/1999/xlink" viewBox="0 0 511.35 190.74">
  <defs>
    <style>
      .cls-1, .cls-2, .cls-3, .cls-4, .cls-5, .cls-6 {
        fill: none;
      }

      .cls-2 {
        stroke: url(#Adsız_degrade_14);
      }

      .cls-2, .cls-3, .cls-4, .cls-5 {
        stroke-miterlimit: 10;
      }

      .cls-2, .cls-5 {
        stroke-width: 5.67px;
      }

      .cls-3 {
        stroke: url(#Adsız_degrade_5-2);
      }

      .cls-3, .cls-4 {
        stroke-width: 6.33px;
      }

      .cls-4 {
        stroke: url(#Adsız_degrade_5-3);
      }

      .cls-7, .cls-8 {
        fill: #00b46c;
      }

      .cls-9, .cls-10 {
        fill: #695ce6;
      }

      .cls-11 {
        fill: #fff;
      }

      .cls-5 {
        stroke: url(#Adsız_degrade_5);
      }

      .cls-8 {
        filter: url(#drop-shadow-2);
      }

      .cls-10 {
        filter: url(#drop-shadow-1);
      }

      .cls-6 {
        clip-path: url(#clippath);
      }
    </style>
    <linearGradient id="Adsız_degrade_14" data-name="Adsız degrade 14" x1="42.14" y1="143.29" x2="53.02" y2="143.29" gradientUnits="userSpaceOnUse">
      <stop offset=".05" stop-color="#00ae76"/>
      <stop offset="1" stop-color="#695ce6"/>
    </linearGradient>
    <linearGradient id="Adsız_degrade_5" data-name="Adsız degrade 5" x1="0" y1="165.27" x2="50.96" y2="165.27" gradientUnits="userSpaceOnUse">
      <stop offset="0" stop-color="#695ce6"/>
      <stop offset="1" stop-color="#00b46c"/>
    </linearGradient>
    <clipPath id="clippath">
      <polygon class="cls-1" points="132.6 59.74 132.6 57.37 145.69 63.51 149.65 86.74 149.65 132.68 132.6 157.76 72.03 165.27 48.12 146.71 28.47 118.42 26.88 94.66 38.76 63.51 50.44 57.1 50.44 73.78 62.53 82.38 117.71 77.69 130.64 84.62 133.02 84.62 132.6 59.74"/>
    </clipPath>
    <linearGradient id="Adsız_degrade_5-2" data-name="Adsız degrade 5" x1="33.55" y1="101.47" x2="146.74" y2="101.47" xlink:href="#Adsız_degrade_5"/>
    <filter id="drop-shadow-1" filterUnits="userSpaceOnUse">
      <feOffset dx="-4.47" dy="0"/>
      <feGaussianBlur result="blur" stdDeviation="7.82"/>
      <feFlood flood-color="#8a8a8b" flood-opacity=".75"/>
      <feComposite in2="blur" operator="in"/>
      <feComposite in="SourceGraphic"/>
    </filter>
    <filter id="drop-shadow-2" filterUnits="userSpaceOnUse">
      <feOffset dx="-4.47" dy="0"/>
      <feGaussianBlur result="blur-2" stdDeviation="7.82"/>
      <feFlood flood-color="#8a8a8b" flood-opacity=".75"/>
      <feComposite in2="blur-2" operator="in"/>
      <feComposite in="SourceGraphic"/>
    </filter>
    <linearGradient id="Adsız_degrade_5-3" data-name="Adsız degrade 5" x1="33.55" y1="129.77" x2="146.74" y2="129.77" xlink:href="#Adsız_degrade_5"/>
  </defs>
  <line class="cls-2" x1="51.02" y1="139.86" x2="44.13" y2="146.71"/>
  <path class="cls-5" d="m33.73,144.22l-29.29,29.29c-2.14,2.14-2.14,5.6,0,7.73l5.06,5.06c2.14,2.14,5.6,2.14,7.73,0l29.29-29.29c2.14-2.14,2.14-5.6,0-7.73l-2.89-2.89-2.16-2.16c-2.14-2.14-5.6-2.14-7.73,0Z"/>
  <g class="cls-6">
    <circle class="cls-3" cx="90.15" cy="101.47" r="53.43"/>
  </g>
  <g>
    <path class="cls-10" d="m96.99,23.47h-37.75c-4.58,0-8.09,3.51-8.09,8.09l1.95,104.1c0,1.35,3.71,5.42,5.06,5.42l6.47,1.04c1.62,0,2.7-1.08,2.7-2.7v-16.18c0-1.62,1.08-2.7,2.7-2.7h16.18c1.62,0,2.7,1.08,2.7,2.7v16.18c0,1.62,1.08,2.7,2.7,2.7h8.09c2.97,0,5.39-2.43,5.39-5.39V31.56c0-4.58-3.51-8.09-8.09-8.09Zm-24.27,84.94c0,.81-.54,1.35-1.35,1.35h-8.09c-.81,0-1.35-.54-1.35-1.35v-13.48c0-.81.54-1.35,1.35-1.35h8.09c.81,0,1.35.54,1.35,1.35v13.48Zm0-26.96c0,.81-.54,1.35-1.35,1.35h-8.09c-.81,0-1.35-.54-1.35-1.35v-13.48c0-.81.54-1.35,1.35-1.35h8.09c.81,0,1.35.54,1.35,1.35v13.48Zm0-26.96c0,.81-.54,1.35-1.35,1.35h-8.09c-.81,0-1.35-.54-1.35-1.35v-13.48c0-.81.54-1.35,1.35-1.35h8.09c.81,0,1.35.54,1.35,1.35v13.48Zm21.57,53.93c0,.81-.54,1.35-1.35,1.35h-8.09c-.81,0-1.35-.54-1.35-1.35v-13.48c0-.81.54-1.35,1.35-1.35h8.09c.81,0,1.35.54,1.35,1.35v13.48Zm0-26.96c0,.81-.54,1.35-1.35,1.35h-8.09c-.81,0-1.35-.54-1.35-1.35v-13.48c0-.81.54-1.35,1.35-1.35h8.09c.81,0,1.35.54,1.35,1.35v13.48Zm0-26.96c0,.81-.54,1.35-1.35,1.35h-8.09c-.81,0-1.35-.54-1.35-1.35v-13.48c0-.81.54-1.35,1.35-1.35h8.09c.81,0,1.35.54,1.35,1.35v13.48Z"/>
    <ellipse class="cls-9" cx="89.34" cy="134.49" rx="35.28" ry="18.74"/>
  </g>
  <g>
    <rect class="cls-11" x="61.93" y="39.69" width="10.79" height="16.14" rx="1.39" ry="1.39"/>
    <rect class="cls-11" x="61.93" y="66.63" width="10.79" height="16.14" rx="1.39" ry="1.39"/>
    <rect class="cls-11" x="61.93" y="93.6" width="10.79" height="16.14" rx="1.39" ry="1.39"/>
    <g>
      <path class="cls-8" d="m123.52,38.12h-35.53c-4.2,0-7.61,3.41-7.61,7.61v101.51c0,1.4,1.14,2.54,2.54,2.54h10.15c1.4,0,2.54-1.14,2.54-2.54v-15.23c0-1.4,1.14-2.54,2.54-2.54h15.23c1.4,0,2.54,1.14,2.54,2.54v15.23c0,1.4,1.14,2.54,2.54,2.54l-2.54-2.54c6.98,0,3.55-6.88,15.23-10.15V45.73c0-4.2-3.41-7.61-7.61-7.61Zm-22.84,79.94c0,.7-.57,1.27-1.27,1.27h-7.61c-.7,0-1.27-.57-1.27-1.27v-12.69c0-.7.57-1.27,1.27-1.27h7.61c.7,0,1.27.57,1.27,1.27v12.69Zm0-25.38c0,.7-.57,1.27-1.27,1.27h-7.61c-.7,0-1.27-.57-1.27-1.27v-12.69c0-.7.57-1.27,1.27-1.27h7.61c.7,0,1.27.57,1.27,1.27v12.69Zm0-25.38c0,.7-.57,1.27-1.27,1.27h-7.61c-.7,0-1.27-.57-1.27-1.27v-12.69c0-.7.57-1.27,1.27-1.27h7.61c.7,0,1.27.57,1.27,1.27v12.69Zm20.3,50.75c0,.7-.57,1.27-1.27,1.27h-7.61c-.7,0-1.27-.57-1.27-1.27v-12.69c0-.7.57-1.27,1.27-1.27h7.61c.7,0,1.27.57,1.27,1.27v12.69Zm0-25.38c0,.7-.57,1.27-1.27,1.27h-7.61c-.7,0-1.27-.57-1.27-1.27v-12.69c0-.7.57-1.27,1.27-1.27h7.61c.7,0,1.27.57,1.27,1.27v12.69Zm0-25.38c0,.7-.57,1.27-1.27,1.27h-7.61c-.7,0-1.27-.57-1.27-1.27v-12.69c0-.7.57-1.27,1.27-1.27h7.61c.7,0,1.27.57,1.27,1.27v12.69Z"/>
      <rect class="cls-11" x="90.53" y="53.38" width="10.15" height="15.19" rx="1.39" ry="1.39"/>
      <rect class="cls-11" x="110.83" y="53.38" width="10.15" height="15.19" rx="1.39" ry="1.39"/>
      <rect class="cls-11" x="90.53" y="78.74" width="10.15" height="15.19" rx="1.39" ry="1.39"/>
      <rect class="cls-11" x="110.83" y="78.74" width="10.15" height="15.19" rx="1.39" ry="1.39"/>
      <rect class="cls-11" x="90.53" y="104.11" width="10.15" height="15.19" rx="1.39" ry="1.39"/>
      <rect class="cls-11" x="110.83" y="104.11" width="10.15" height="15.19" rx="1.39" ry="1.39"/>
      <polygon class="cls-7" points="80.38 128.68 80.38 153.23 92.82 155.4 109.85 151.69 123.24 144.01 131.14 134.6 127.55 126.96 102.88 125.17 80.38 128.68"/>
    </g>
  </g>
  <path class="cls-4" d="m143.57,101.47c0,29.51-23.92,53.43-53.43,53.43s-53.43-23.92-53.43-53.43"/>
  <g>
    <path class="cls-9" d="m167.1,83.83h37.58v10.68h-26.03v9.65h21.44v10.21h-21.44v21.2h-11.55v-51.74Z"/>
    <path class="cls-9" d="m210.53,85.25c0-4.03,2.93-6.96,6.96-6.96s6.96,2.93,6.96,6.96-2.93,6.96-6.96,6.96-6.96-2.93-6.96-6.96Zm1.58,11.23h10.68v39.08h-10.68v-39.08Z"/>
    <path class="cls-9" d="m231.9,113.1c0-11.95,7.04-17.64,17.41-17.64s17.25,5.62,17.33,17.8v.24h-10.68v-.4c0-5.78-2.77-7.67-6.65-7.67s-6.72,1.9-6.72,7.67v22.47h-10.68v-22.47Z"/>
    <path class="cls-9" d="m271.54,113.42c0-12.42,7.2-17.96,16.61-17.96,5.7,0,10.36,2.29,13.29,6.65,2.85-4.35,7.52-6.65,13.29-6.65,9.42,0,16.62,5.54,16.62,17.96v22.15h-10.68v-22.15c0-5.78-2.93-7.99-6.96-7.99s-6.88,2.21-6.88,7.99v22.15h-10.68v-22.15c0-5.78-3.01-7.99-6.96-7.99s-6.96,2.21-6.96,7.99v22.15h-10.68v-22.15Z"/>
    <path class="cls-9" d="m337.52,116.51c0-12.58,8.7-21.04,21.12-21.04s20.81,8.23,20.81,20.97v19.15h-9.81v-7.04c-2.22,5.3-7.04,8.07-12.98,8.07-9.02,0-19.15-6.65-19.15-20.1Zm31.25-.47c0-6.25-4.11-10.6-10.21-10.6s-10.21,4.35-10.21,10.6,4.11,10.6,10.21,10.6,10.21-4.35,10.21-10.6Z"/>
    <path class="cls-9" d="m407.07,109.7c0-15.51,11.39-26.9,27.53-26.9,13.69,0,24.05,8.23,26.82,20.25h-12.18c-2.22-5.78-7.6-9.57-14.64-9.57-9.49,0-15.82,6.8-15.82,16.22s6.33,16.22,15.82,16.22c7.04,0,12.42-3.8,14.64-9.57h12.18c-2.77,12.03-13.13,20.25-26.82,20.25-16.14,0-27.53-11.39-27.53-26.9Z"/>
    <path class="cls-9" d="m462.13,83.83h12.5l12.26,38.37,12.26-38.37h12.18l-16.49,46.68c-1.07,3.03-3.94,5.06-7.15,5.06h0c-4.37,0-8.26-2.76-9.72-6.88l-15.85-44.87Z"/>
  </g>
</svg>