<?xml version="1.0" encoding="utf-8"?>
<!-- Generator: Adobe Illustrator 27.6.1, SVG Export Plug-In . SVG Version: 6.00 Build 0)  -->
<svg version="1.1" id="Layer_1" xmlns="http://www.w3.org/2000/svg" xmlns:xlink="http://www.w3.org/1999/xlink" x="0px" y="0px"
	 viewBox="0 0 496 496" style="enable-background:new 0 0 496 496;" xml:space="preserve">
<style type="text/css">
	.st0{fill:#53E1A3;}
	.st1{fill:#999FF8;}
</style>
<path class="st0" d="M191.1,77.5c8.8,7.1,14.6,16.9,16.6,27.8l-24.4-9.8l-5.2,12.9l37.3,14.9l37.3-14.9l-5.2-12.9l-25.8,10.3
	c-2-15.4-9.8-29.4-22.1-39.3c-10.7-8.6-24.1-13.3-37.8-13.3h-2.1v13.9h2.1C172.5,67.3,182.8,70.9,191.1,77.5z"/>
<path class="st0" d="M295.6,418.5c-8.8-7.1-14.6-16.9-16.6-27.8l24.4,9.8l5.2-12.9l-37.3-14.9l-37.3,14.9l5.2,12.9l25.8-10.3
	c2,15.4,9.8,29.4,22.1,39.3c10.7,8.6,24.1,13.3,37.8,13.3h2.1v-13.9h-2.1C314.1,428.7,303.8,425.1,295.6,418.5z"/>
<path class="st1" d="M396.2,338.4c-10,0-19.4,2.4-27.8,6.6V221.5l14.4,36l12.9-5.2l-10.3-25.8c15.4-2,29.4-9.8,39.3-22.1
	c8.6-10.7,13.3-24.1,13.3-37.8v-2.1H424v2.1c0,10.5-3.6,20.9-10.2,29.1c-7.1,8.8-16.9,14.6-27.8,16.6l9.8-24.4l-12.9-5.2l-14.4,36
	V151c8.4,4.2,17.8,6.6,27.8,6.6c34.5,0,62.6-28.1,62.6-62.6s-28.1-62.6-62.6-62.6s-62.6,28.1-62.6,62.6c0,24.2,13.9,45.2,34,55.6
	H118.9c20.2-10.4,34-31.4,34-55.6c0-34.5-28.1-62.6-62.6-62.6S27.8,60.6,27.8,95.1s28.1,62.6,62.6,62.6c10,0,19.4-2.4,27.8-6.6
	v123.4l-14.4-36l-12.9,5.2l10.3,25.8c-15.4,2-29.4,9.8-39.3,22.1c-8.6,10.7-13.3,24.1-13.3,37.8v2.1h13.9v-2.1
	c0-10.5,3.6-20.9,10.2-29.1c7.1-8.8,16.9-14.6,27.8-16.6L90.9,308l12.9,5.2l14.4-36V345c-8.4-4.2-17.8-6.6-27.8-6.6
	c-34.5,0-62.6,28.1-62.6,62.6s28.1,62.6,62.6,62.6s62.6-28.1,62.6-62.6c0-24.2-13.9-45.2-34-55.6h248.8c-20.2,10.4-34,31.4-34,55.6
	c0,34.5,28.1,62.6,62.6,62.6s62.6-28.1,62.6-62.6S430.7,338.4,396.2,338.4z M111.2,139c-6.3,3-13.4,4.8-20.9,4.8
	c-7.5,0-14.5-1.7-20.9-4.8v-9.1c0-11.5,9.4-20.9,20.9-20.9s20.9,9.4,20.9,20.9V139z M76.5,81.2c0-7.7,6.2-13.9,13.9-13.9
	c7.7,0,13.9,6.2,13.9,13.9S98,95.1,90.4,95.1S76.5,88.8,76.5,81.2z M111.2,444.8c-6.3,3-13.4,4.8-20.9,4.8c-7.5,0-14.5-1.7-20.9-4.8
	v-9.1c0-11.5,9.4-20.9,20.9-20.9s20.9,9.4,20.9,20.9V444.8z M76.5,387c0-7.7,6.2-13.9,13.9-13.9c7.7,0,13.9,6.2,13.9,13.9
	s-6.2,13.9-13.9,13.9S76.5,394.7,76.5,387z M139,400.9c0,13.3-5.3,25.3-14,34.1c-0.2-11.7-6.2-22-15.3-28.1c5.2-5,8.4-12.1,8.4-19.8
	c0-15.3-12.5-27.8-27.8-27.8S62.6,371.7,62.6,387c0,7.8,3.2,14.8,8.4,19.8c-9.1,6.1-15,16.4-15.3,28.1c-8.6-8.8-14-20.8-14-34.1
	c0-26.8,21.8-48.7,48.7-48.7S139,374.1,139,400.9z M109.8,101c5.2-5,8.4-12.1,8.4-19.8c0-15.3-12.5-27.8-27.8-27.8
	S62.6,65.8,62.6,81.2c0,7.8,3.2,14.8,8.4,19.8c-9.1,6.1-15,16.4-15.3,28.1c-8.6-8.8-14-20.8-14-34.1c0-26.8,21.8-48.7,48.7-48.7
	S139,68.2,139,95.1c0,13.3-5.3,25.3-14,34.1C124.8,117.4,118.9,107.1,109.8,101z M354.5,331.4H132.1V220.2h222.5V331.4z
	 M354.5,206.3H132.1v-41.7h222.5V206.3z M417.1,139c-6.3,3-13.4,4.8-20.9,4.8c-7.5,0-14.5-1.7-20.9-4.8v-9.1
	c0-11.5,9.4-20.9,20.9-20.9c11.5,0,20.9,9.4,20.9,20.9V139z M382.3,81.2c0-7.7,6.2-13.9,13.9-13.9s13.9,6.2,13.9,13.9
	s-6.2,13.9-13.9,13.9S382.3,88.8,382.3,81.2z M361.6,129.1c-8.6-8.8-14-20.8-14-34.1c0-26.8,21.8-48.7,48.7-48.7
	c26.8,0,48.7,21.8,48.7,48.7c0,13.3-5.3,25.3-14,34.1c-0.2-11.7-6.2-22-15.3-28.1c5.2-5,8.4-12.1,8.4-19.8
	c0-15.3-12.5-27.8-27.8-27.8s-27.8,12.5-27.8,27.8c0,7.8,3.2,14.8,8.4,19.8C367.8,107.1,361.8,117.4,361.6,129.1z M417.1,444.8
	c-6.3,3-13.4,4.8-20.9,4.8c-7.5,0-14.5-1.7-20.9-4.8v-9.1c0-11.5,9.4-20.9,20.9-20.9c11.5,0,20.9,9.4,20.9,20.9V444.8z M382.3,387
	c0-7.7,6.2-13.9,13.9-13.9s13.9,6.2,13.9,13.9s-6.2,13.9-13.9,13.9S382.3,394.7,382.3,387z M430.9,435c-0.2-11.7-6.2-22-15.3-28.1
	c5.2-5,8.4-12.1,8.4-19.8c0-15.3-12.5-27.8-27.8-27.8s-27.8,12.5-27.8,27.8c0,7.8,3.2,14.8,8.4,19.8c-9.1,6.1-15,16.4-15.3,28.1
	c-8.6-8.8-14-20.8-14-34.1c0-26.8,21.8-48.7,48.7-48.7c26.8,0,48.7,21.8,48.7,48.7C444.9,414.2,439.6,426.2,430.9,435z"/>
<rect x="146" y="178.5" class="st0" width="13.9" height="13.9"/>
<rect x="173.8" y="178.5" class="st0" width="13.9" height="13.9"/>
<rect x="201.6" y="178.5" class="st0" width="13.9" height="13.9"/>
<path class="st0" d="M257.2,234.1H146v83.4h111.2V234.1z M243.3,303.6h-83.4V248h83.4V303.6z"/>
<rect x="271.1" y="234.1" class="st0" width="69.5" height="13.9"/>
<rect x="271.1" y="261.9" class="st0" width="69.5" height="13.9"/>
<rect x="271.1" y="289.7" class="st0" width="69.5" height="13.9"/>
</svg>
