<svg width="83" height="81" fill="none" xmlns="http://www.w3.org/2000/svg">
  <path d="M82.565 54.465a7.385 7.385 0 00-3.567-4.622c-1.827-.96-3.828-1.22-5.83-.61l-18.182 5.755c-.61-.61-1.218-1.047-2.001-1.308l-13.746-5.494c-3.828-1.57-8.178-1.83-12.18-.785l-9.396 2.442v-1.308a2.342 2.342 0 00-2.35-2.354H2.526a2.342 2.342 0 00-2.35 2.354v28.166a2.342 2.342 0 002.35 2.354h12.702a2.342 2.342 0 002.349-2.354v-1.657l28.97 4.97c.958.175 1.915.262 2.785.262 3.393 0 6.612-1.046 9.483-3.052L79.78 62.4c2.436-1.744 3.567-4.97 2.784-7.935zM12.878 74.433H4.874V50.977h8.004v23.456zM76.997 58.65L56.03 73.474a11.47 11.47 0 01-8.7 2.006l-29.754-5.145V54.726l10.614-2.79c3.045-.785 6.35-.61 9.222.61l13.746 5.494c.348.174.609.436.783.785.174.348.174.697 0 1.046-.261.61-.87.872-1.48.785L34.28 58.04c-1.305-.175-2.523.697-2.697 1.918-.174 1.308.696 2.53 1.914 2.703l16.182 2.617c.348.087.609.087.957.087 2.436 0 4.61-1.395 5.568-3.75.348-.698.435-1.482.522-2.267l17.835-5.58c.696-.263 1.479-.175 2.175.173.696.35 1.13.96 1.305 1.657.26 1.221-.174 2.355-1.044 3.052z" fill="#695DE9"/>
  <path d="M56.901 46.18c12.441 0 22.62-10.202 22.62-22.671 0-12.47-10.179-22.672-22.62-22.672-12.44 0-22.62 10.202-22.62 22.672S44.373 46.18 56.901 46.18zm0-40.634c9.831 0 17.922 8.022 17.922 17.963 0 9.853-8.09 17.963-17.922 17.963-9.918 0-17.922-8.022-17.922-17.963 0-9.94 8.004-17.963 17.922-17.963z" fill="#3AD08F"/>
  <path d="M52.81 30.049a2.374 2.374 0 001.653.697c.609 0 1.218-.261 1.653-.697l9.83-9.854c.958-.96.958-2.442 0-3.314-.956-.959-2.435-.959-3.305 0l-8.178 8.197-3.306-3.313c-.957-.96-2.436-.96-3.306 0-.957.959-.957 2.441 0 3.313l4.959 4.97z" fill="#3AD08F"/>
</svg>
