<svg width="69" height="77" fill="none" xmlns="http://www.w3.org/2000/svg">
  <path d="M34.669 0C15.89 0 .66 15.231.66 34.008v35.218c0 2.82 1.612 5.4 4.19 6.608 1.048.484 2.096.725 3.144.725 1.612 0 3.304-.564 4.593-1.611l8.462-6.85h13.62c18.777 0 34.008-15.312 34.008-34.09C68.677 15.231 53.446 0 34.67 0zm0 61.892H19.92c-.725 0-1.37.242-1.934.725l-9.268 7.576c-.483.403-.967.242-1.209.161-.242-.08-.644-.403-.644-1.048V34.01c0-15.393 12.49-27.804 27.803-27.804 15.392 0 27.803 12.492 27.803 27.803 0 15.393-12.41 27.884-27.803 27.884z" fill="#695DE9"/>
  <path d="M18.955 39.569a5.56 5.56 0 100-11.121 5.56 5.56 0 000 11.121zM34.666 39.569a5.56 5.56 0 100-11.121 5.56 5.56 0 000 11.121zM50.38 39.569a5.56 5.56 0 10.001-11.121 5.56 5.56 0 000 11.121z" fill="#3AD08F"/>
</svg>
