<?xml version="1.0" encoding="utf-8"?>
<!-- Generator: Adobe Illustrator 27.6.1, SVG Export Plug-In . SVG Version: 6.00 Build 0)  -->
<svg version="1.1" id="katman_1" xmlns="http://www.w3.org/2000/svg" xmlns:xlink="http://www.w3.org/1999/xlink" x="0px" y="0px"
	 viewBox="0 0 800 800" style="enable-background:new 0 0 800 800;" xml:space="preserve">
<style type="text/css">
	.st0{fill:#9A9FF2;}
	.st1{fill:#7DDEA8;}
</style>
<g id="Layer_1">
</g>
<path class="st0" d="M241.9,663.6h316.2c20,0,36.3-16.2,36.3-36.2V217.7c0-20-16.2-36.2-36.3-36.2h-46.6v-33.3
	c0-6.4-5.3-11.7-11.7-11.7c-6.4,0-11.7,5.3-11.7,11.7v33.3h-76.4v-33.3c0-6.4-5.3-11.7-11.7-11.7c-6.4,0-11.7,5.3-11.7,11.7v33.3
	h-76.4v-33.3c0-6.4-5.3-11.7-11.7-11.7s-11.7,5.3-11.7,11.7v33.3h-46.6c-20,0-36.2,16.2-36.2,36.2v409.5
	C205.6,647.2,221.9,663.6,241.9,663.6z M229.1,217.7c0-7,5.8-12.8,12.8-12.8h46.6v33.6c0,6.4,5.3,11.7,11.7,11.7
	c6.4,0,11.7-5.3,11.7-11.7v-33.6h76.4v33.6c0,6.4,5.3,11.7,11.7,11.7s11.7-5.3,11.7-11.7v-33.6h76.4v33.6c0,6.4,5.3,11.7,11.7,11.7
	c6.4,0,11.7-5.3,11.7-11.7v-33.6h46.6c7,0,12.8,5.8,12.8,12.8v409.5c0,7-5.8,12.8-12.8,12.8H241.9c-7,0-12.8-5.8-12.8-12.8V217.7z"
	/>
<path class="st1" d="M284.2,342.8c2.3,2.3,5.3,3.4,8.3,3.4c3,0,5.9-1.1,8.3-3.4l41.4-41.4c4.5-4.5,4.5-12,0-16.6
	c-4.5-4.5-12-4.5-16.6,0L292.5,318l-12-12c-4.5-4.5-12-4.5-16.6,0c-4.5,4.5-4.5,12,0,16.6L284.2,342.8z"/>
<path class="st0" d="M372,325.5h155.8c6.4,0,11.7-5.3,11.7-11.7s-5.3-11.7-11.7-11.7H372c-6.4,0-11.7,5.3-11.7,11.7
	S365.6,325.5,372,325.5z"/>
<path class="st1" d="M284.2,451.6c2.3,2.3,5.3,3.4,8.3,3.4c3,0,5.9-1.1,8.3-3.4l41.4-41.4c4.5-4.5,4.5-12,0-16.6
	c-4.5-4.5-12-4.5-16.6,0l-33.1,33l-12-12c-4.5-4.5-12-4.5-16.6,0c-4.5,4.5-4.5,12,0,16.6L284.2,451.6z"/>
<path class="st0" d="M372,434.2h155.8c6.4,0,11.7-5.3,11.7-11.7c0-6.4-5.3-11.7-11.7-11.7H372c-6.4,0-11.7,5.3-11.7,11.7
	C360.3,428.9,365.6,434.2,372,434.2z"/>
<path class="st1" d="M284.2,560.2c2.3,2.3,5.3,3.4,8.3,3.4c3,0,5.9-1.1,8.3-3.4l41.4-41.4c4.5-4.5,4.5-12,0-16.6
	c-4.5-4.5-12-4.5-16.6,0l-33.1,33.1l-12-12c-4.5-4.5-12-4.5-16.6,0s-4.5,12,0,16.6L284.2,560.2z"/>
<path class="st0" d="M372,543h155.8c6.4,0,11.7-5.3,11.7-11.7s-5.3-11.7-11.7-11.7H372c-6.4,0-11.7,5.3-11.7,11.7S365.6,543,372,543
	z"/>
</svg>
