<?xml version="1.0" encoding="utf-8"?>
<!-- Generator: Adobe Illustrator 27.6.1, SVG Export Plug-In . SVG Version: 6.00 Build 0)  -->
<svg version="1.1" id="katman_1" xmlns="http://www.w3.org/2000/svg" xmlns:xlink="http://www.w3.org/1999/xlink" x="0px" y="0px"
	 viewBox="0 0 800 800" style="enable-background:new 0 0 800 800;" xml:space="preserve">
<style type="text/css">
	.st0{fill:#999FF8;}
</style>
<path class="st0" d="M128,32v64H64v672h672V224H480V96h-64V32H128z M160,64h224v64h64v608H304V624h-64v112H96V128h64V64z M160,160
	v32h32v-32H160z M224,160v32h32v-32H224z M288,160v32h32v-32H288z M352,160v32h32v-32H352z M160,240v64h32v-64H160z M224,240v64h32
	v-64H224z M288,240v64h32v-64H288z M352,240v64h32v-64H352z M480,256h224v480H480V256z M512,288v32h32v-32H512z M576,288v32h32v-32
	H576z M640,288v32h32v-32H640z M160,336v64h32v-64H160z M224,336v64h32v-64H224z M288,336v64h32v-64H288z M352,336v64h32v-64H352z
	 M512,352v32h32v-32H512z M576,352v32h32v-32H576z M640,352v32h32v-32H640z M512,416v32h32v-32H512z M576,416v32h32v-32H576z
	 M640,416v32h32v-32H640z M160,432v64h32v-64H160z M224,432v64h32v-64H224z M288,432v64h32v-64H288z M352,432v64h32v-64H352z
	 M512,480v32h32v-32H512z M576,480v32h32v-32H576z M640,480v32h32v-32H640z M160,528v64h32v-64H160z M224,528v64h32v-64H224z
	 M288,528v64h32v-64H288z M352,528v64h32v-64H352z M512,544v32h32v-32H512z M576,544v32h32v-32H576z M640,544v32h32v-32H640z
	 M512,608v32h32v-32H512z M576,608v32h32v-32H576z M640,608v32h32v-32H640z M160,624v80h32v-80H160z M352,624v80h32v-80H352z
	 M512,672v32h32v-32H512z M576,672v32h32v-32H576z M640,672v32h32v-32H640z"/>
</svg>
