<svg xmlns="http://www.w3.org/2000/svg" xmlns:xlink="http://www.w3.org/1999/xlink" width="400" zoomAndPan="magnify" viewBox="0 0 300 374.999991" height="500" preserveAspectRatio="xMidYMid meet" version="1.0"><defs><clipPath id="03a2f77284"><path d="M 0.363281 247.265625 L 137.25 247.265625 L 137.25 375 L 0.363281 375 Z M 0.363281 247.265625 " clip-rule="nonzero"/></clipPath><clipPath id="a1712d51e8"><path d="M 60.003906 65 L 250 65 L 250 254.996094 L 60.003906 254.996094 Z M 60.003906 65 " clip-rule="nonzero"/></clipPath><clipPath id="fae68da316"><path d="M 51 70 L 241 70 L 241 263 L 51 263 Z M 51 70 " clip-rule="nonzero"/></clipPath><clipPath id="d555cdd205"><path d="M 243.769531 259.695312 L 54.894531 266.488281 L 47.96875 73.859375 L 236.847656 67.070312 Z M 243.769531 259.695312 " clip-rule="nonzero"/></clipPath><clipPath id="3a1082331d"><path d="M 243.769531 259.695312 L 54.894531 266.488281 L 47.96875 73.859375 L 236.847656 67.070312 Z M 243.769531 259.695312 " clip-rule="nonzero"/></clipPath></defs><rect x="-30" width="360" fill="#ffffff" y="-37.499999" height="449.999989" fill-opacity="1"/><rect x="-30" width="360" fill="#f5f5f5" y="-37.499999" height="449.999989" fill-opacity="1"/><g clip-path="url(#03a2f77284)"><path fill="#9294f8" d="M 67.828125 246.902344 L 69.8125 246.902344 C 107.25 246.902344 137.613281 277.265625 137.613281 314.730469 L 137.613281 316.714844 C 137.613281 354.152344 107.25 384.515625 69.785156 384.515625 L 0.335938 384.515625 C 0.140625 384.515625 0 384.347656 0 384.179688 L 0 314.730469 C 0 277.265625 30.363281 246.902344 67.828125 246.902344 Z M 67.828125 246.902344 " fill-opacity="1" fill-rule="nonzero"/></g><path fill="#44d696" d="M 322.941406 384.515625 L 322.941406 384.53125 L 206.195312 384.53125 L 206.195312 384.515625 C 175.140625 383.945312 150.144531 358.535156 150.144531 327.265625 C 150.144531 296 175.140625 270.582031 206.195312 270.015625 L 206.195312 270 L 322.941406 270 L 322.941406 270.015625 C 353.945312 270.644531 378.882812 296.03125 378.882812 327.265625 C 378.882812 358.5 353.945312 383.890625 322.941406 384.515625 Z M 322.941406 384.515625 " fill-opacity="1" fill-rule="nonzero"/><path fill="#44d696" d="M 120 0 C 120 66.277344 66.277344 120 0 120 L 0 65.210938 C 35.992188 65.210938 65.164062 36.066406 65.210938 0.0976562 Z M 120 0 " fill-opacity="1" fill-rule="nonzero"/><g clip-path="url(#a1712d51e8)"><path fill="#c1ff72" d="M 154.597656 65.859375 C 156.148438 65.859375 157.691406 65.898438 159.238281 65.972656 C 160.785156 66.046875 162.328125 66.164062 163.867188 66.3125 C 165.410156 66.464844 166.945312 66.65625 168.476562 66.882812 C 170.007812 67.109375 171.53125 67.375 173.046875 67.675781 C 174.566406 67.976562 176.074219 68.316406 177.578125 68.691406 C 179.078125 69.070312 180.570312 69.480469 182.050781 69.929688 C 183.53125 70.378906 185 70.867188 186.457031 71.386719 C 187.914062 71.90625 189.359375 72.464844 190.789062 73.058594 C 192.21875 73.648438 193.632812 74.277344 195.03125 74.9375 C 196.429688 75.601562 197.8125 76.296875 199.179688 77.023438 C 200.542969 77.753906 201.890625 78.515625 203.214844 79.3125 C 204.542969 80.109375 205.851562 80.9375 207.136719 81.796875 C 208.425781 82.65625 209.691406 83.546875 210.933594 84.46875 C 212.175781 85.390625 213.394531 86.34375 214.59375 87.324219 C 215.789062 88.304688 216.960938 89.316406 218.105469 90.355469 C 219.253906 91.394531 220.375 92.460938 221.46875 93.558594 C 222.5625 94.652344 223.628906 95.773438 224.667969 96.917969 C 225.707031 98.066406 226.71875 99.238281 227.703125 100.433594 C 228.683594 101.628906 229.636719 102.851562 230.558594 104.09375 C 231.480469 105.335938 232.371094 106.601562 233.230469 107.886719 C 234.089844 109.175781 234.917969 110.480469 235.710938 111.808594 C 236.507812 113.136719 237.269531 114.484375 238 115.847656 C 238.730469 117.210938 239.425781 118.59375 240.085938 119.992188 C 240.75 121.394531 241.375 122.808594 241.96875 124.238281 C 242.5625 125.667969 243.117188 127.109375 243.640625 128.566406 C 244.160156 130.023438 244.644531 131.496094 245.09375 132.976562 C 245.542969 134.457031 245.957031 135.949219 246.332031 137.449219 C 246.710938 138.949219 247.046875 140.460938 247.351562 141.976562 C 247.652344 143.496094 247.917969 145.019531 248.144531 146.550781 C 248.371094 148.082031 248.558594 149.617188 248.710938 151.15625 C 248.863281 152.699219 248.976562 154.242188 249.054688 155.785156 C 249.128906 157.332031 249.167969 158.878906 249.167969 160.425781 C 249.167969 161.976562 249.128906 163.519531 249.054688 165.066406 C 248.976562 166.613281 248.863281 168.15625 248.710938 169.695312 C 248.558594 171.238281 248.371094 172.773438 248.144531 174.304688 C 247.917969 175.835938 247.652344 177.359375 247.351562 178.875 C 247.046875 180.394531 246.710938 181.902344 246.332031 183.40625 C 245.957031 184.90625 245.542969 186.398438 245.09375 187.878906 C 244.644531 189.359375 244.160156 190.828125 243.640625 192.285156 C 243.117188 193.742188 242.5625 195.1875 241.96875 196.617188 C 241.375 198.046875 240.75 199.460938 240.085938 200.859375 C 239.425781 202.257812 238.730469 203.640625 238 205.007812 C 237.269531 206.371094 236.507812 207.71875 235.710938 209.046875 C 234.917969 210.371094 234.089844 211.679688 233.230469 212.964844 C 232.371094 214.253906 231.480469 215.519531 230.558594 216.761719 C 229.636719 218.003906 228.683594 219.222656 227.703125 220.421875 C 226.71875 221.617188 225.707031 222.789062 224.667969 223.933594 C 223.628906 225.082031 222.5625 226.203125 221.46875 227.296875 C 220.375 228.390625 219.253906 229.457031 218.105469 230.496094 C 216.960938 231.535156 215.789062 232.546875 214.59375 233.53125 C 213.394531 234.511719 212.175781 235.464844 210.933594 236.386719 C 209.691406 237.308594 208.425781 238.199219 207.136719 239.058594 C 205.851562 239.917969 204.542969 240.746094 203.214844 241.542969 C 201.890625 242.335938 200.542969 243.097656 199.179688 243.828125 C 197.8125 244.558594 196.429688 245.253906 195.03125 245.914062 C 193.632812 246.578125 192.21875 247.203125 190.789062 247.796875 C 189.359375 248.390625 187.914062 248.945312 186.457031 249.46875 C 185 249.988281 183.53125 250.472656 182.050781 250.921875 C 180.570312 251.371094 179.078125 251.785156 177.578125 252.160156 C 176.074219 252.539062 174.566406 252.875 173.046875 253.179688 C 171.53125 253.480469 170.007812 253.746094 168.476562 253.972656 C 166.945312 254.199219 165.410156 254.386719 163.867188 254.539062 C 162.328125 254.691406 160.785156 254.804688 159.238281 254.882812 C 157.691406 254.957031 156.148438 254.996094 154.597656 254.996094 C 153.050781 254.996094 151.503906 254.957031 149.957031 254.882812 C 148.414062 254.804688 146.871094 254.691406 145.328125 254.539062 C 143.789062 254.386719 142.253906 254.199219 140.722656 253.972656 C 139.191406 253.746094 137.667969 253.480469 136.148438 253.179688 C 134.632812 252.875 133.121094 252.539062 131.621094 252.160156 C 130.121094 251.785156 128.628906 251.371094 127.148438 250.921875 C 125.667969 250.472656 124.195312 249.988281 122.738281 249.46875 C 121.28125 248.945312 119.839844 248.390625 118.410156 247.796875 C 116.980469 247.203125 115.566406 246.578125 114.164062 245.914062 C 112.765625 245.253906 111.382812 244.558594 110.019531 243.828125 C 108.65625 243.097656 107.308594 242.335938 105.980469 241.542969 C 104.652344 240.746094 103.347656 239.917969 102.058594 239.058594 C 100.773438 238.199219 99.507812 237.308594 98.265625 236.386719 C 97.019531 235.464844 95.800781 234.511719 94.605469 233.53125 C 93.410156 232.546875 92.238281 231.535156 91.089844 230.496094 C 89.945312 229.457031 88.824219 228.390625 87.730469 227.296875 C 86.632812 226.203125 85.566406 225.082031 84.527344 223.933594 C 83.488281 222.789062 82.476562 221.617188 81.496094 220.421875 C 80.515625 219.222656 79.5625 218.003906 78.640625 216.761719 C 77.71875 215.519531 76.828125 214.253906 75.96875 212.964844 C 75.109375 211.679688 74.28125 210.371094 73.484375 209.046875 C 72.6875 207.71875 71.925781 206.371094 71.195312 205.007812 C 70.46875 203.640625 69.773438 202.257812 69.109375 200.859375 C 68.449219 199.460938 67.820312 198.046875 67.230469 196.617188 C 66.636719 195.1875 66.078125 193.742188 65.558594 192.285156 C 65.039062 190.828125 64.550781 189.359375 64.101562 187.878906 C 63.652344 186.398438 63.242188 184.90625 62.863281 183.40625 C 62.488281 181.902344 62.148438 180.394531 61.847656 178.875 C 61.546875 177.359375 61.28125 175.835938 61.054688 174.304688 C 60.828125 172.773438 60.636719 171.238281 60.484375 169.695312 C 60.335938 168.15625 60.21875 166.613281 60.144531 165.066406 C 60.070312 163.519531 60.03125 161.976562 60.03125 160.425781 C 60.03125 158.878906 60.070312 157.332031 60.144531 155.785156 C 60.21875 154.242188 60.335938 152.699219 60.484375 151.15625 C 60.636719 149.617188 60.828125 148.082031 61.054688 146.550781 C 61.28125 145.019531 61.546875 143.496094 61.847656 141.976562 C 62.148438 140.460938 62.488281 138.949219 62.863281 137.449219 C 63.242188 135.949219 63.652344 134.457031 64.101562 132.976562 C 64.550781 131.496094 65.039062 130.023438 65.558594 128.566406 C 66.078125 127.109375 66.636719 125.667969 67.230469 124.238281 C 67.820312 122.808594 68.449219 121.394531 69.109375 119.992188 C 69.773438 118.59375 70.46875 117.210938 71.195312 115.847656 C 71.925781 114.484375 72.6875 113.136719 73.484375 111.808594 C 74.28125 110.480469 75.109375 109.175781 75.96875 107.886719 C 76.828125 106.601562 77.71875 105.335938 78.640625 104.09375 C 79.5625 102.847656 80.515625 101.628906 81.496094 100.433594 C 82.476562 99.238281 83.488281 98.066406 84.527344 96.917969 C 85.566406 95.773438 86.632812 94.652344 87.730469 93.558594 C 88.824219 92.460938 89.945312 91.394531 91.089844 90.355469 C 92.238281 89.316406 93.410156 88.304688 94.605469 87.324219 C 95.800781 86.34375 97.019531 85.390625 98.265625 84.46875 C 99.507812 83.546875 100.773438 82.65625 102.058594 81.796875 C 103.347656 80.9375 104.652344 80.109375 105.980469 79.3125 C 107.308594 78.515625 108.65625 77.753906 110.019531 77.023438 C 111.382812 76.296875 112.765625 75.601562 114.164062 74.9375 C 115.566406 74.277344 116.980469 73.648438 118.410156 73.058594 C 119.839844 72.464844 121.28125 71.90625 122.738281 71.386719 C 124.195312 70.867188 125.667969 70.378906 127.148438 69.929688 C 128.628906 69.480469 130.121094 69.070312 131.621094 68.691406 C 133.121094 68.316406 134.632812 67.976562 136.148438 67.675781 C 137.667969 67.375 139.191406 67.109375 140.722656 66.882812 C 142.253906 66.65625 143.789062 66.464844 145.328125 66.3125 C 146.871094 66.164062 148.414062 66.046875 149.957031 65.972656 C 151.503906 65.898438 153.050781 65.859375 154.597656 65.859375 Z M 154.597656 65.859375 " fill-opacity="1" fill-rule="nonzero"/></g><path fill="#695be7" d="M 160.710938 53.320312 C 217.121094 56.488281 261.890625 103.226562 261.890625 160.425781 L 321.15625 160.425781 L 321.15625 -0.0195312 L 160.710938 -0.0195312 Z M 160.710938 53.320312 " fill-opacity="1" fill-rule="nonzero"/><g clip-path="url(#fae68da316)"><g clip-path="url(#d555cdd205)"><g clip-path="url(#3a1082331d)"><path fill="#f5f5f5" d="M 239.929688 159.65625 C 240.746094 175.78125 237.300781 191.058594 230.542969 205.621094 C 226.917969 213.429688 222.246094 220.597656 216.722656 227.238281 C 208.1875 237.5 198.050781 245.746094 186.265625 251.96875 C 177.742188 256.46875 168.722656 259.675781 159.234375 261.3125 C 153.953125 262.222656 148.597656 263.113281 143.203125 262.832031 C 139.5625 262.636719 135.914062 262.570312 132.265625 262.25 C 122.089844 261.347656 112.550781 258.433594 103.359375 254.171875 C 96.539062 251.007812 90.332031 246.867188 84.507812 242.121094 C 80.660156 238.984375 77.226562 235.457031 73.992188 231.714844 C 73.09375 230.679688 72.984375 229.425781 73.808594 228.773438 C 74.855469 227.945312 75.847656 228.195312 76.722656 229.125 C 78.492188 231.019531 80.222656 232.945312 82.085938 234.753906 C 92.53125 244.921875 104.769531 251.957031 118.800781 255.867188 C 124.28125 257.390625 129.84375 258.382812 135.546875 258.746094 C 138.523438 258.933594 141.515625 259.144531 144.480469 259.140625 C 147.652344 259.140625 150.835938 258.691406 153.996094 258.277344 C 160.128906 257.46875 166.140625 256.082031 171.976562 254.011719 C 181.878906 250.496094 190.996094 245.554688 199.242188 238.988281 C 204.019531 235.183594 208.507812 231.085938 212.484375 226.46875 C 219.804688 217.976562 225.539062 208.503906 229.636719 198.054688 C 232.085938 191.8125 233.851562 185.390625 234.964844 178.777344 C 235.417969 176.105469 235.640625 173.414062 235.953125 170.730469 C 236.75 163.964844 236.574219 157.179688 235.5625 150.515625 C 234.15625 141.203125 231.550781 132.167969 227.390625 123.636719 C 224.136719 116.960938 220.183594 110.746094 215.386719 105.089844 C 209.742188 98.429688 203.25 92.746094 195.835938 88.082031 C 186.21875 82.023438 175.847656 78.011719 164.65625 76.042969 C 157.230469 74.734375 149.75 74.203125 142.261719 74.921875 C 128.652344 76.234375 115.804688 80.164062 103.945312 87.058594 C 96.234375 91.539062 89.285156 96.988281 83.039062 103.390625 C 74.234375 112.410156 67.558594 122.765625 62.726562 134.34375 C 59.210938 142.769531 57 151.566406 56.066406 160.640625 C 55.625 164.929688 55.390625 169.265625 55.574219 173.589844 C 56.019531 183.851562 57.804688 193.855469 61.5625 203.460938 C 61.800781 204.0625 62.078125 204.664062 62.226562 205.289062 C 62.421875 206.105469 62.351562 207.035156 61.425781 207.261719 C 60.570312 207.46875 59.476562 208.03125 58.828125 206.707031 C 57.816406 204.636719 57.042969 202.46875 56.363281 200.289062 C 54.65625 194.828125 53.234375 189.292969 52.597656 183.585938 C 51.933594 177.605469 51.457031 171.574219 51.816406 165.582031 C 52.875 147.835938 58.140625 131.382812 67.773438 116.386719 C 71.75 110.199219 76.339844 104.464844 81.59375 99.324219 C 91.214844 89.914062 102.21875 82.558594 114.789062 77.601562 C 120.792969 75.234375 126.964844 73.484375 133.285156 72.28125 C 139.929688 71.015625 146.695312 70.667969 153.402344 70.921875 C 165.3125 71.367188 176.761719 74.160156 187.601562 79.191406 C 194.730469 82.5 201.324219 86.683594 207.351562 91.761719 C 222.082031 104.167969 231.78125 119.765625 236.867188 138.269531 C 237.828125 141.761719 238.46875 145.355469 239.128906 148.925781 C 239.773438 152.464844 239.769531 156.066406 239.929688 159.65625 Z M 239.929688 159.65625 " fill-opacity="1" fill-rule="nonzero"/></g></g></g><path stroke-linecap="butt" transform="matrix(0.75, 0, 0, 0.75, -21.140585, 6.356358)" fill="none" stroke-linejoin="miter" d="M 1.999947 161.524867 L 1.999947 231.410288 C 1.999947 244.665497 12.74474 255.410289 25.999949 255.410289 L 130.046831 255.410289 C 143.30204 255.410289 154.046832 244.665497 154.046832 231.410288 L 154.046832 25.998816 C 154.046832 12.743607 164.791625 1.998814 178.046834 1.998814 L 335.109344 1.998814 C 348.364553 1.998814 359.109346 12.743607 359.109346 25.998816 L 359.109346 436.222801 C 359.109346 449.47801 348.364553 460.222803 335.109344 460.222803 L 96.723912 460.222803 C 83.468703 460.222803 72.72391 449.47801 72.72391 436.222801 L 72.72391 342.587378 C 72.72391 329.332169 83.468703 318.587377 96.723912 318.587377 L 470.49477 318.587377 C 483.749979 318.587377 494.494771 307.842584 494.494771 294.587375 L 494.494771 241.524872 " stroke="#f5f5f5" stroke-width="4" stroke-opacity="1" stroke-miterlimit="4"/><path stroke-linecap="butt" transform="matrix(0.75, 0, 0, 0.75, -54.19757, 171.666932)" fill="none" stroke-linejoin="miter" d="M 1.997802 161.527435 L 1.997802 231.412856 C 1.997802 244.662857 12.742595 255.412858 25.997804 255.412858 L 130.044686 255.412858 C 143.299895 255.412858 154.044687 244.662857 154.044687 231.412856 L 154.044687 26.001384 C 154.044687 12.746175 164.78948 2.001383 178.044689 2.001383 L 335.112408 2.001383 C 348.367617 2.001383 359.112409 12.746175 359.112409 26.001384 L 359.112409 436.220161 C 359.112409 449.47537 348.367617 460.220163 335.112408 460.220163 L 96.721767 460.220163 C 83.466558 460.220163 72.721765 449.47537 72.721765 436.220161 L 72.721765 342.589947 C 72.721765 329.334737 83.466558 318.589945 96.721767 318.589945 L 470.492625 318.589945 C 483.747834 318.589945 494.492626 307.845153 494.492626 294.589943 L 494.492626 241.52744 " stroke="#f5f5f5" stroke-width="4" stroke-opacity="1" stroke-miterlimit="4"/><path stroke-linecap="butt" transform="matrix(0.75, 0, 0, 0.75, -1.499996, -116.566831)" fill="none" stroke-linejoin="miter" d="M 1.999995 161.526618 L 1.999995 231.41204 C 1.999995 244.667249 12.744788 255.412041 25.999997 255.412041 L 130.046879 255.412041 C 143.302088 255.412041 154.04688 244.667249 154.04688 231.41204 L 154.04688 26.000568 C 154.04688 12.745358 164.791673 2.000566 178.046882 2.000566 L 335.109392 2.000566 C 348.364601 2.000566 359.109394 12.745358 359.109394 26.000568 L 359.109394 436.219345 C 359.109394 449.474554 348.364601 460.219346 335.109392 460.219346 L 96.72396 460.219346 C 83.468751 460.219346 72.723958 449.474554 72.723958 436.219345 L 72.723958 342.58913 C 72.723958 329.333921 83.468751 318.589129 96.72396 318.589129 L 470.494818 318.589129 C 483.750027 318.589129 494.494819 307.844336 494.494819 294.589127 L 494.494819 241.526624 " stroke="#f5f5f5" stroke-width="4" stroke-opacity="1" stroke-miterlimit="4"/></svg>